<mxfile host="www.draw.io" modified="2020-02-16T17:28:58.145Z" agent="Mozilla/5.0 (Windows NT 10.0; Win64; x64) AppleWebKit/537.36 (KHTML, like Gecko) Chrome/79.0.3945.130 Safari/537.36" etag="M0yRlYOq5MwwLjiaNDiz" version="12.7.0" type="github">
  <diagram id="jN9ZzLNDDYYRKlVLCkU8" name="Page-1">
    <mxGraphModel dx="1412" dy="1992" grid="1" gridSize="10" guides="1" tooltips="1" connect="1" arrows="1" fold="1" page="1" pageScale="1" pageWidth="850" pageHeight="1100" math="0" shadow="0">
      <root>
        <mxCell id="0"/>
        <mxCell id="1" parent="0"/>
        <mxCell id="iJIT8fu7xfQn46Ji7LRA-50" value="" style="endArrow=classic;html=1;dashed=1;exitX=0.5;exitY=0.896;exitDx=0;exitDy=0;exitPerimeter=0;" parent="1" source="iJIT8fu7xfQn46Ji7LRA-12" edge="1">
          <mxGeometry width="50" height="50" relative="1" as="geometry">
            <mxPoint x="639.82" y="542.4300000000002" as="sourcePoint"/>
            <mxPoint x="509.82" y="542.4300000000002" as="targetPoint"/>
          </mxGeometry>
        </mxCell>
        <mxCell id="iJIT8fu7xfQn46Ji7LRA-23" style="edgeStyle=orthogonalEdgeStyle;rounded=0;orthogonalLoop=1;jettySize=auto;html=1;entryX=0.95;entryY=-0.028;entryDx=0;entryDy=0;entryPerimeter=0;" parent="1" source="iJIT8fu7xfQn46Ji7LRA-24" target="iJIT8fu7xfQn46Ji7LRA-39" edge="1">
          <mxGeometry relative="1" as="geometry">
            <mxPoint x="1040" y="759" as="targetPoint"/>
          </mxGeometry>
        </mxCell>
        <mxCell id="iJIT8fu7xfQn46Ji7LRA-17" style="edgeStyle=orthogonalEdgeStyle;rounded=0;orthogonalLoop=1;jettySize=auto;html=1;entryX=0.819;entryY=-0.006;entryDx=0;entryDy=0;entryPerimeter=0;" parent="1" source="iJIT8fu7xfQn46Ji7LRA-18" target="iJIT8fu7xfQn46Ji7LRA-39" edge="1">
          <mxGeometry relative="1" as="geometry">
            <mxPoint x="910" y="759" as="targetPoint"/>
          </mxGeometry>
        </mxCell>
        <mxCell id="iJIT8fu7xfQn46Ji7LRA-11" style="edgeStyle=orthogonalEdgeStyle;rounded=0;orthogonalLoop=1;jettySize=auto;html=1;entryX=0.689;entryY=0.006;entryDx=0;entryDy=0;entryPerimeter=0;" parent="1" source="iJIT8fu7xfQn46Ji7LRA-12" target="iJIT8fu7xfQn46Ji7LRA-39" edge="1">
          <mxGeometry relative="1" as="geometry">
            <mxPoint x="780" y="759" as="targetPoint"/>
            <Array as="points">
              <mxPoint x="779" y="680"/>
              <mxPoint x="779" y="680"/>
            </Array>
          </mxGeometry>
        </mxCell>
        <mxCell id="hV3SvycA8Y3fYOB4Zh-P-26" style="edgeStyle=orthogonalEdgeStyle;rounded=0;orthogonalLoop=1;jettySize=auto;html=1;exitX=0.5;exitY=1;exitDx=0;exitDy=0;entryX=0.11;entryY=0.035;entryDx=0;entryDy=0;entryPerimeter=0;" parent="1" source="hV3SvycA8Y3fYOB4Zh-P-53" target="iJIT8fu7xfQn46Ji7LRA-39" edge="1">
          <mxGeometry relative="1" as="geometry">
            <mxPoint x="200" y="760" as="targetPoint"/>
          </mxGeometry>
        </mxCell>
        <mxCell id="hV3SvycA8Y3fYOB4Zh-P-27" value="&lt;div&gt;ACTOR&lt;/div&gt;" style="rounded=0;whiteSpace=wrap;html=1;" parent="1" vertex="1">
          <mxGeometry x="150" y="50" width="100" height="40" as="geometry"/>
        </mxCell>
        <mxCell id="hV3SvycA8Y3fYOB4Zh-P-28" style="edgeStyle=orthogonalEdgeStyle;rounded=0;orthogonalLoop=1;jettySize=auto;html=1;exitX=0.5;exitY=1;exitDx=0;exitDy=0;entryX=0.257;entryY=0.003;entryDx=0;entryDy=0;entryPerimeter=0;" parent="1" source="hV3SvycA8Y3fYOB4Zh-P-54" target="iJIT8fu7xfQn46Ji7LRA-39" edge="1">
          <mxGeometry relative="1" as="geometry">
            <mxPoint x="353" y="968" as="targetPoint"/>
            <Array as="points">
              <mxPoint x="347" y="670"/>
            </Array>
          </mxGeometry>
        </mxCell>
        <mxCell id="hV3SvycA8Y3fYOB4Zh-P-29" value="UI" style="rounded=0;whiteSpace=wrap;html=1;" parent="1" vertex="1">
          <mxGeometry x="300" y="50" width="100" height="40" as="geometry"/>
        </mxCell>
        <mxCell id="hV3SvycA8Y3fYOB4Zh-P-30" style="edgeStyle=orthogonalEdgeStyle;rounded=0;orthogonalLoop=1;jettySize=auto;html=1;entryX=0.41;entryY=0.046;entryDx=0;entryDy=0;entryPerimeter=0;" parent="1" source="hV3SvycA8Y3fYOB4Zh-P-41" target="iJIT8fu7xfQn46Ji7LRA-39" edge="1">
          <mxGeometry relative="1" as="geometry">
            <mxPoint x="500" y="760" as="targetPoint"/>
          </mxGeometry>
        </mxCell>
        <mxCell id="hV3SvycA8Y3fYOB4Zh-P-31" value="&lt;div&gt;System&lt;/div&gt;" style="rounded=0;whiteSpace=wrap;html=1;" parent="1" vertex="1">
          <mxGeometry x="450" y="50" width="100" height="40" as="geometry"/>
        </mxCell>
        <mxCell id="hV3SvycA8Y3fYOB4Zh-P-39" style="edgeStyle=orthogonalEdgeStyle;rounded=0;orthogonalLoop=1;jettySize=auto;html=1;exitX=0.5;exitY=1;exitDx=0;exitDy=0;" parent="1" source="hV3SvycA8Y3fYOB4Zh-P-27" target="hV3SvycA8Y3fYOB4Zh-P-53" edge="1">
          <mxGeometry relative="1" as="geometry">
            <mxPoint x="200" y="760" as="targetPoint"/>
            <mxPoint x="200" y="90" as="sourcePoint"/>
          </mxGeometry>
        </mxCell>
        <mxCell id="hV3SvycA8Y3fYOB4Zh-P-40" style="edgeStyle=orthogonalEdgeStyle;rounded=0;orthogonalLoop=1;jettySize=auto;html=1;exitX=0.5;exitY=1;exitDx=0;exitDy=0;" parent="1" source="hV3SvycA8Y3fYOB4Zh-P-29" target="hV3SvycA8Y3fYOB4Zh-P-54" edge="1">
          <mxGeometry relative="1" as="geometry">
            <mxPoint x="350" y="760" as="targetPoint"/>
            <mxPoint x="350" y="90" as="sourcePoint"/>
          </mxGeometry>
        </mxCell>
        <mxCell id="iJIT8fu7xfQn46Ji7LRA-33" style="edgeStyle=none;rounded=0;orthogonalLoop=1;jettySize=auto;html=1;entryX=0.309;entryY=0.005;entryDx=0;entryDy=0;entryPerimeter=0;" parent="1" target="iJIT8fu7xfQn46Ji7LRA-28" edge="1">
          <mxGeometry relative="1" as="geometry">
            <mxPoint x="550" y="360" as="targetPoint"/>
            <mxPoint x="505" y="350" as="sourcePoint"/>
            <Array as="points">
              <mxPoint x="535" y="350"/>
            </Array>
          </mxGeometry>
        </mxCell>
        <mxCell id="hV3SvycA8Y3fYOB4Zh-P-41" value="" style="rounded=0;whiteSpace=wrap;html=1;" parent="1" vertex="1">
          <mxGeometry x="495" y="240" width="10" height="960" as="geometry"/>
        </mxCell>
        <mxCell id="hV3SvycA8Y3fYOB4Zh-P-42" style="edgeStyle=orthogonalEdgeStyle;rounded=0;orthogonalLoop=1;jettySize=auto;html=1;" parent="1" source="hV3SvycA8Y3fYOB4Zh-P-31" target="hV3SvycA8Y3fYOB4Zh-P-41" edge="1">
          <mxGeometry relative="1" as="geometry">
            <mxPoint x="500" y="760" as="targetPoint"/>
            <mxPoint x="500" y="90" as="sourcePoint"/>
          </mxGeometry>
        </mxCell>
        <mxCell id="hV3SvycA8Y3fYOB4Zh-P-52" value="&lt;div&gt;&lt;br&gt;&lt;/div&gt;&lt;div&gt;&lt;br&gt;&lt;/div&gt;" style="text;html=1;align=center;verticalAlign=middle;resizable=0;points=[];autosize=1;" parent="1" vertex="1">
          <mxGeometry x="230" y="615" width="20" height="30" as="geometry"/>
        </mxCell>
        <mxCell id="hV3SvycA8Y3fYOB4Zh-P-53" value="" style="rounded=0;whiteSpace=wrap;html=1;" parent="1" vertex="1">
          <mxGeometry x="195" y="150" width="10" height="1190" as="geometry"/>
        </mxCell>
        <mxCell id="hV3SvycA8Y3fYOB4Zh-P-54" value="" style="rounded=0;whiteSpace=wrap;html=1;" parent="1" vertex="1">
          <mxGeometry x="345" y="150" width="10" height="1200" as="geometry"/>
        </mxCell>
        <mxCell id="hV3SvycA8Y3fYOB4Zh-P-61" value="" style="endArrow=classic;html=1;" parent="1" edge="1">
          <mxGeometry width="50" height="50" relative="1" as="geometry">
            <mxPoint x="205" y="180" as="sourcePoint"/>
            <mxPoint x="340" y="180" as="targetPoint"/>
          </mxGeometry>
        </mxCell>
        <mxCell id="hV3SvycA8Y3fYOB4Zh-P-62" value="Search for Client" style="rounded=0;whiteSpace=wrap;html=1;strokeColor=#000000;" parent="1" vertex="1">
          <mxGeometry x="382" y="194" width="90" height="41" as="geometry"/>
        </mxCell>
        <mxCell id="hV3SvycA8Y3fYOB4Zh-P-63" value="" style="endArrow=classic;html=1;" parent="1" edge="1">
          <mxGeometry width="50" height="50" relative="1" as="geometry">
            <mxPoint x="360" y="240" as="sourcePoint"/>
            <mxPoint x="493" y="240" as="targetPoint"/>
          </mxGeometry>
        </mxCell>
        <mxCell id="0bvk2rSndgldJ7NTQyqk-1" style="edgeStyle=orthogonalEdgeStyle;rounded=0;orthogonalLoop=1;jettySize=auto;html=1;entryX=0;entryY=0;entryDx=0;entryDy=0;exitX=1.133;exitY=0.037;exitDx=0;exitDy=0;exitPerimeter=0;" parent="1" source="hV3SvycA8Y3fYOB4Zh-P-41" target="iJIT8fu7xfQn46Ji7LRA-3" edge="1">
          <mxGeometry relative="1" as="geometry">
            <Array as="points">
              <mxPoint x="506" y="260"/>
              <mxPoint x="645" y="260"/>
            </Array>
            <mxPoint x="580" y="230" as="sourcePoint"/>
          </mxGeometry>
        </mxCell>
        <mxCell id="hV3SvycA8Y3fYOB4Zh-P-3" value="Provides a parameter to search the system for" style="rounded=0;whiteSpace=wrap;html=1;strokeColor=#000000;" parent="1" vertex="1">
          <mxGeometry x="230" y="137" width="90" height="63" as="geometry"/>
        </mxCell>
        <mxCell id="iJIT8fu7xfQn46Ji7LRA-1" style="edgeStyle=orthogonalEdgeStyle;rounded=0;orthogonalLoop=1;jettySize=auto;html=1;entryX=0.56;entryY=0.065;entryDx=0;entryDy=0;entryPerimeter=0;" parent="1" source="iJIT8fu7xfQn46Ji7LRA-3" target="iJIT8fu7xfQn46Ji7LRA-39" edge="1">
          <mxGeometry relative="1" as="geometry">
            <mxPoint x="650" y="914.7058823529412" as="targetPoint"/>
          </mxGeometry>
        </mxCell>
        <mxCell id="iJIT8fu7xfQn46Ji7LRA-2" value="&lt;div&gt;ClientList&lt;/div&gt;" style="rounded=0;whiteSpace=wrap;html=1;" parent="1" vertex="1">
          <mxGeometry x="600" y="50" width="100" height="40" as="geometry"/>
        </mxCell>
        <mxCell id="iJIT8fu7xfQn46Ji7LRA-3" value="" style="rounded=0;whiteSpace=wrap;html=1;" parent="1" vertex="1">
          <mxGeometry x="645" y="260" width="10" height="60" as="geometry"/>
        </mxCell>
        <mxCell id="iJIT8fu7xfQn46Ji7LRA-4" style="edgeStyle=orthogonalEdgeStyle;rounded=0;orthogonalLoop=1;jettySize=auto;html=1;" parent="1" source="iJIT8fu7xfQn46Ji7LRA-2" target="iJIT8fu7xfQn46Ji7LRA-3" edge="1">
          <mxGeometry relative="1" as="geometry">
            <mxPoint x="650" y="760" as="targetPoint"/>
            <mxPoint x="650" y="90" as="sourcePoint"/>
            <Array as="points">
              <mxPoint x="649" y="130"/>
              <mxPoint x="649" y="130"/>
            </Array>
          </mxGeometry>
        </mxCell>
        <mxCell id="iJIT8fu7xfQn46Ji7LRA-8" value="&lt;div&gt;OrderList&lt;/div&gt;" style="rounded=0;whiteSpace=wrap;html=1;" parent="1" vertex="1">
          <mxGeometry x="730" y="50" width="100" height="40" as="geometry"/>
        </mxCell>
        <mxCell id="iJIT8fu7xfQn46Ji7LRA-44" style="edgeStyle=none;rounded=0;orthogonalLoop=1;jettySize=auto;html=1;entryX=0.5;entryY=0;entryDx=0;entryDy=0;exitX=0.5;exitY=1;exitDx=0;exitDy=0;" parent="1" source="iJIT8fu7xfQn46Ji7LRA-8" target="iJIT8fu7xfQn46Ji7LRA-12" edge="1">
          <mxGeometry relative="1" as="geometry">
            <mxPoint x="780" y="365" as="sourcePoint"/>
          </mxGeometry>
        </mxCell>
        <mxCell id="iJIT8fu7xfQn46Ji7LRA-12" value="" style="rounded=0;whiteSpace=wrap;html=1;" parent="1" vertex="1">
          <mxGeometry x="775" y="477.43" width="10" height="72.57" as="geometry"/>
        </mxCell>
        <mxCell id="iJIT8fu7xfQn46Ji7LRA-14" value="&lt;div&gt;ProductList&lt;/div&gt;" style="rounded=0;whiteSpace=wrap;html=1;" parent="1" vertex="1">
          <mxGeometry x="860" y="50" width="100" height="40" as="geometry"/>
        </mxCell>
        <mxCell id="iJIT8fu7xfQn46Ji7LRA-45" style="edgeStyle=none;rounded=0;orthogonalLoop=1;jettySize=auto;html=1;entryX=0.5;entryY=0;entryDx=0;entryDy=0;exitX=0.5;exitY=1;exitDx=0;exitDy=0;" parent="1" source="iJIT8fu7xfQn46Ji7LRA-14" target="iJIT8fu7xfQn46Ji7LRA-18" edge="1">
          <mxGeometry relative="1" as="geometry">
            <mxPoint x="910" y="365" as="sourcePoint"/>
          </mxGeometry>
        </mxCell>
        <mxCell id="iJIT8fu7xfQn46Ji7LRA-18" value="" style="rounded=0;whiteSpace=wrap;html=1;" parent="1" vertex="1">
          <mxGeometry x="905" y="730" width="10" height="70" as="geometry"/>
        </mxCell>
        <mxCell id="iJIT8fu7xfQn46Ji7LRA-20" value="&lt;div&gt;Supplier&lt;/div&gt;" style="rounded=0;whiteSpace=wrap;html=1;" parent="1" vertex="1">
          <mxGeometry x="990" y="50" width="100" height="40" as="geometry"/>
        </mxCell>
        <mxCell id="iJIT8fu7xfQn46Ji7LRA-46" style="edgeStyle=none;rounded=0;orthogonalLoop=1;jettySize=auto;html=1;entryX=0.5;entryY=0;entryDx=0;entryDy=0;exitX=0.5;exitY=1;exitDx=0;exitDy=0;" parent="1" source="iJIT8fu7xfQn46Ji7LRA-20" target="iJIT8fu7xfQn46Ji7LRA-24" edge="1">
          <mxGeometry relative="1" as="geometry">
            <mxPoint x="1040" y="365" as="sourcePoint"/>
          </mxGeometry>
        </mxCell>
        <mxCell id="iJIT8fu7xfQn46Ji7LRA-24" value="" style="rounded=0;whiteSpace=wrap;html=1;" parent="1" vertex="1">
          <mxGeometry x="1035" y="940" width="10" height="70" as="geometry"/>
        </mxCell>
        <mxCell id="iJIT8fu7xfQn46Ji7LRA-25" value="Search for Parameter" style="rounded=0;whiteSpace=wrap;html=1;strokeColor=#000000;" parent="1" vertex="1">
          <mxGeometry x="530" y="215" width="90" height="41" as="geometry"/>
        </mxCell>
        <mxCell id="iJIT8fu7xfQn46Ji7LRA-26" value="" style="endArrow=classic;html=1;dashed=1;" parent="1" edge="1">
          <mxGeometry width="50" height="50" relative="1" as="geometry">
            <mxPoint x="640" y="317.43" as="sourcePoint"/>
            <mxPoint x="510" y="317.43" as="targetPoint"/>
          </mxGeometry>
        </mxCell>
        <mxCell id="iJIT8fu7xfQn46Ji7LRA-27" value="Return relevent Clients" style="rounded=0;whiteSpace=wrap;html=1;strokeColor=#000000;" parent="1" vertex="1">
          <mxGeometry x="530" y="271.43" width="90" height="41" as="geometry"/>
        </mxCell>
        <mxCell id="iJIT8fu7xfQn46Ji7LRA-34" style="edgeStyle=none;rounded=0;orthogonalLoop=1;jettySize=auto;html=1;exitX=0.322;exitY=0.965;exitDx=0;exitDy=0;exitPerimeter=0;" parent="1" source="iJIT8fu7xfQn46Ji7LRA-28" edge="1">
          <mxGeometry relative="1" as="geometry">
            <mxPoint x="505" y="420" as="targetPoint"/>
            <Array as="points">
              <mxPoint x="536" y="420"/>
            </Array>
          </mxGeometry>
        </mxCell>
        <mxCell id="iJIT8fu7xfQn46Ji7LRA-28" value="Stow Results" style="rounded=0;whiteSpace=wrap;html=1;strokeColor=#000000;" parent="1" vertex="1">
          <mxGeometry x="520" y="365" width="50" height="41" as="geometry"/>
        </mxCell>
        <mxCell id="iJIT8fu7xfQn46Ji7LRA-39" value="&lt;font style=&quot;font-size: 36px&quot;&gt;FINISH&lt;/font&gt;" style="rounded=0;whiteSpace=wrap;html=1;fillColor=#ffffff;strokeColor=#000000;" parent="1" vertex="1">
          <mxGeometry x="90" y="1440" width="1000" height="60" as="geometry"/>
        </mxCell>
        <mxCell id="iJIT8fu7xfQn46Ji7LRA-47" style="edgeStyle=none;rounded=0;orthogonalLoop=1;jettySize=auto;html=1;entryX=0.309;entryY=0.005;entryDx=0;entryDy=0;entryPerimeter=0;" parent="1" target="iJIT8fu7xfQn46Ji7LRA-53" edge="1">
          <mxGeometry relative="1" as="geometry">
            <mxPoint x="549.82" y="585" as="targetPoint"/>
            <mxPoint x="504.82" y="575" as="sourcePoint"/>
            <Array as="points">
              <mxPoint x="534.82" y="575"/>
            </Array>
          </mxGeometry>
        </mxCell>
        <mxCell id="iJIT8fu7xfQn46Ji7LRA-48" style="edgeStyle=orthogonalEdgeStyle;rounded=0;orthogonalLoop=1;jettySize=auto;html=1;exitX=1.133;exitY=0.037;exitDx=0;exitDy=0;exitPerimeter=0;entryX=0.073;entryY=0.055;entryDx=0;entryDy=0;entryPerimeter=0;" parent="1" target="iJIT8fu7xfQn46Ji7LRA-12" edge="1">
          <mxGeometry relative="1" as="geometry">
            <Array as="points">
              <mxPoint x="640" y="482"/>
            </Array>
            <mxPoint x="505.7611764705883" y="481.2352941176471" as="sourcePoint"/>
            <mxPoint x="770" y="481" as="targetPoint"/>
          </mxGeometry>
        </mxCell>
        <mxCell id="iJIT8fu7xfQn46Ji7LRA-49" value="Search for Parameter" style="rounded=0;whiteSpace=wrap;html=1;strokeColor=#000000;" parent="1" vertex="1">
          <mxGeometry x="570" y="436" width="90" height="41" as="geometry"/>
        </mxCell>
        <mxCell id="iJIT8fu7xfQn46Ji7LRA-51" value="Return relevent Orders" style="rounded=0;whiteSpace=wrap;html=1;strokeColor=#000000;" parent="1" vertex="1">
          <mxGeometry x="645" y="497" width="90" height="41" as="geometry"/>
        </mxCell>
        <mxCell id="iJIT8fu7xfQn46Ji7LRA-52" style="edgeStyle=none;rounded=0;orthogonalLoop=1;jettySize=auto;html=1;exitX=0.322;exitY=0.965;exitDx=0;exitDy=0;exitPerimeter=0;" parent="1" source="iJIT8fu7xfQn46Ji7LRA-53" edge="1">
          <mxGeometry relative="1" as="geometry">
            <mxPoint x="504.82" y="645" as="targetPoint"/>
            <Array as="points">
              <mxPoint x="535.82" y="645"/>
            </Array>
          </mxGeometry>
        </mxCell>
        <mxCell id="iJIT8fu7xfQn46Ji7LRA-53" value="Stow Results" style="rounded=0;whiteSpace=wrap;html=1;strokeColor=#000000;" parent="1" vertex="1">
          <mxGeometry x="519.82" y="590" width="50" height="41" as="geometry"/>
        </mxCell>
        <mxCell id="iJIT8fu7xfQn46Ji7LRA-60" value="" style="endArrow=classic;html=1;dashed=1;" parent="1" edge="1">
          <mxGeometry width="50" height="50" relative="1" as="geometry">
            <mxPoint x="900" y="796" as="sourcePoint"/>
            <mxPoint x="509.99999999999994" y="796.4300000000003" as="targetPoint"/>
          </mxGeometry>
        </mxCell>
        <mxCell id="iJIT8fu7xfQn46Ji7LRA-61" style="edgeStyle=none;rounded=0;orthogonalLoop=1;jettySize=auto;html=1;entryX=0.309;entryY=0.005;entryDx=0;entryDy=0;entryPerimeter=0;" parent="1" target="iJIT8fu7xfQn46Ji7LRA-66" edge="1">
          <mxGeometry relative="1" as="geometry">
            <mxPoint x="550" y="839" as="targetPoint"/>
            <mxPoint x="504.99999999999994" y="829" as="sourcePoint"/>
            <Array as="points">
              <mxPoint x="535" y="829"/>
            </Array>
          </mxGeometry>
        </mxCell>
        <mxCell id="iJIT8fu7xfQn46Ji7LRA-62" style="edgeStyle=orthogonalEdgeStyle;rounded=0;orthogonalLoop=1;jettySize=auto;html=1;exitX=1.133;exitY=0.037;exitDx=0;exitDy=0;exitPerimeter=0;entryX=-0.7;entryY=0.1;entryDx=0;entryDy=0;entryPerimeter=0;" parent="1" target="iJIT8fu7xfQn46Ji7LRA-18" edge="1">
          <mxGeometry relative="1" as="geometry">
            <Array as="points">
              <mxPoint x="506" y="737"/>
            </Array>
            <mxPoint x="506.18" y="735" as="sourcePoint"/>
            <mxPoint x="776.18" y="735" as="targetPoint"/>
          </mxGeometry>
        </mxCell>
        <mxCell id="iJIT8fu7xfQn46Ji7LRA-63" value="Search for Parameter" style="rounded=0;whiteSpace=wrap;html=1;strokeColor=#000000;" parent="1" vertex="1">
          <mxGeometry x="645" y="689" width="90" height="41" as="geometry"/>
        </mxCell>
        <mxCell id="iJIT8fu7xfQn46Ji7LRA-64" value="Return relevent Products" style="rounded=0;whiteSpace=wrap;html=1;strokeColor=#000000;" parent="1" vertex="1">
          <mxGeometry x="700" y="751" width="90" height="41" as="geometry"/>
        </mxCell>
        <mxCell id="iJIT8fu7xfQn46Ji7LRA-65" style="edgeStyle=none;rounded=0;orthogonalLoop=1;jettySize=auto;html=1;exitX=0.322;exitY=0.965;exitDx=0;exitDy=0;exitPerimeter=0;" parent="1" source="iJIT8fu7xfQn46Ji7LRA-66" edge="1">
          <mxGeometry relative="1" as="geometry">
            <mxPoint x="504.99999999999994" y="899" as="targetPoint"/>
            <Array as="points">
              <mxPoint x="536" y="899"/>
            </Array>
          </mxGeometry>
        </mxCell>
        <mxCell id="iJIT8fu7xfQn46Ji7LRA-66" value="Stow Results" style="rounded=0;whiteSpace=wrap;html=1;strokeColor=#000000;" parent="1" vertex="1">
          <mxGeometry x="520" y="844" width="50" height="41" as="geometry"/>
        </mxCell>
        <mxCell id="iJIT8fu7xfQn46Ji7LRA-68" value="" style="endArrow=classic;html=1;dashed=1;exitX=-0.371;exitY=0.953;exitDx=0;exitDy=0;exitPerimeter=0;" parent="1" source="iJIT8fu7xfQn46Ji7LRA-24" edge="1">
          <mxGeometry width="50" height="50" relative="1" as="geometry">
            <mxPoint x="1020" y="1007" as="sourcePoint"/>
            <mxPoint x="510" y="1007.4300000000003" as="targetPoint"/>
          </mxGeometry>
        </mxCell>
        <mxCell id="iJIT8fu7xfQn46Ji7LRA-69" style="edgeStyle=none;rounded=0;orthogonalLoop=1;jettySize=auto;html=1;entryX=0.309;entryY=0.005;entryDx=0;entryDy=0;entryPerimeter=0;" parent="1" target="iJIT8fu7xfQn46Ji7LRA-74" edge="1">
          <mxGeometry relative="1" as="geometry">
            <mxPoint x="550" y="1050" as="targetPoint"/>
            <mxPoint x="505" y="1040" as="sourcePoint"/>
            <Array as="points">
              <mxPoint x="535" y="1040"/>
            </Array>
          </mxGeometry>
        </mxCell>
        <mxCell id="iJIT8fu7xfQn46Ji7LRA-70" style="edgeStyle=orthogonalEdgeStyle;rounded=0;orthogonalLoop=1;jettySize=auto;html=1;exitX=1.133;exitY=0.037;exitDx=0;exitDy=0;exitPerimeter=0;entryX=-0.333;entryY=0.104;entryDx=0;entryDy=0;entryPerimeter=0;" parent="1" target="iJIT8fu7xfQn46Ji7LRA-24" edge="1">
          <mxGeometry relative="1" as="geometry">
            <Array as="points"/>
            <mxPoint x="506" y="947" as="sourcePoint"/>
            <mxPoint x="1020" y="947" as="targetPoint"/>
          </mxGeometry>
        </mxCell>
        <mxCell id="iJIT8fu7xfQn46Ji7LRA-71" value="Search for Parameter" style="rounded=0;whiteSpace=wrap;html=1;strokeColor=#000000;" parent="1" vertex="1">
          <mxGeometry x="645" y="900" width="90" height="41" as="geometry"/>
        </mxCell>
        <mxCell id="iJIT8fu7xfQn46Ji7LRA-72" value="Return relevent Products" style="rounded=0;whiteSpace=wrap;html=1;strokeColor=#000000;" parent="1" vertex="1">
          <mxGeometry x="700" y="962" width="90" height="41" as="geometry"/>
        </mxCell>
        <mxCell id="iJIT8fu7xfQn46Ji7LRA-73" style="edgeStyle=none;rounded=0;orthogonalLoop=1;jettySize=auto;html=1;exitX=0.322;exitY=0.965;exitDx=0;exitDy=0;exitPerimeter=0;" parent="1" source="iJIT8fu7xfQn46Ji7LRA-74" edge="1">
          <mxGeometry relative="1" as="geometry">
            <mxPoint x="505" y="1110" as="targetPoint"/>
            <Array as="points">
              <mxPoint x="536" y="1110"/>
            </Array>
          </mxGeometry>
        </mxCell>
        <mxCell id="iJIT8fu7xfQn46Ji7LRA-74" value="Stow Results" style="rounded=0;whiteSpace=wrap;html=1;strokeColor=#000000;" parent="1" vertex="1">
          <mxGeometry x="520" y="1055" width="50" height="41" as="geometry"/>
        </mxCell>
        <mxCell id="iJIT8fu7xfQn46Ji7LRA-81" value="" style="endArrow=classic;html=1;dashed=1;" parent="1" edge="1">
          <mxGeometry width="50" height="50" relative="1" as="geometry">
            <mxPoint x="490" y="1176" as="sourcePoint"/>
            <mxPoint x="360" y="1176" as="targetPoint"/>
          </mxGeometry>
        </mxCell>
        <mxCell id="iJIT8fu7xfQn46Ji7LRA-82" value="Return list of results" style="rounded=0;whiteSpace=wrap;html=1;strokeColor=#000000;" parent="1" vertex="1">
          <mxGeometry x="380" y="1130" width="90" height="41" as="geometry"/>
        </mxCell>
        <mxCell id="iJIT8fu7xfQn46Ji7LRA-83" value="" style="endArrow=classic;html=1;dashed=1;" parent="1" edge="1">
          <mxGeometry width="50" height="50" relative="1" as="geometry">
            <mxPoint x="340" y="1199" as="sourcePoint"/>
            <mxPoint x="210" y="1199" as="targetPoint"/>
          </mxGeometry>
        </mxCell>
        <mxCell id="iJIT8fu7xfQn46Ji7LRA-84" value="Return list of results" style="rounded=0;whiteSpace=wrap;html=1;strokeColor=#000000;" parent="1" vertex="1">
          <mxGeometry x="230" y="1153" width="90" height="41" as="geometry"/>
        </mxCell>
        <mxCell id="PLpbO8a5jVKQ1b6Vrl5z-1" value="&lt;span style=&quot;font-size: 18px&quot;&gt;SEARCH&lt;/span&gt;" style="rounded=0;whiteSpace=wrap;html=1;strokeColor=none;align=left;" vertex="1" parent="1">
          <mxGeometry x="36.67" y="-60" width="270" height="40" as="geometry"/>
        </mxCell>
      </root>
    </mxGraphModel>
  </diagram>
</mxfile>
